<svg width="44" height="44" viewBox="0 0 44 44" fill="none" xmlns="http://www.w3.org/2000/svg">
<mask id="mask0_1432_20853" style="mask-type:alpha" maskUnits="userSpaceOnUse" x="10" y="10" width="24" height="24">
<rect x="10" y="10" width="24" height="24" fill="#D9D9D9"/>
</mask>
<g mask="url(#mask0_1432_20853)">
<path d="M21.025 31V28.85C20.1417 28.65 19.3792 28.2667 18.7375 27.7C18.0958 27.1333 17.625 26.3333 17.325 25.3L19.175 24.55C19.425 25.35 19.7958 25.9583 20.2875 26.375C20.7792 26.7917 21.425 27 22.225 27C22.9083 27 23.4875 26.8458 23.9625 26.5375C24.4375 26.2292 24.675 25.75 24.675 25.1C24.675 24.5167 24.4917 24.0542 24.125 23.7125C23.7583 23.3708 22.9083 22.9833 21.575 22.55C20.1417 22.1 19.1583 21.5625 18.625 20.9375C18.0917 20.3125 17.825 19.55 17.825 18.65C17.825 17.5667 18.175 16.725 18.875 16.125C19.575 15.525 20.2917 15.1833 21.025 15.1V13H23.025V15.1C23.8583 15.2333 24.5458 15.5375 25.0875 16.0125C25.6292 16.4875 26.025 17.0667 26.275 17.75L24.425 18.55C24.225 18.0167 23.9417 17.6167 23.575 17.35C23.2083 17.0833 22.7083 16.95 22.075 16.95C21.3417 16.95 20.7833 17.1125 20.4 17.4375C20.0167 17.7625 19.825 18.1667 19.825 18.65C19.825 19.2 20.075 19.6333 20.575 19.95C21.075 20.2667 21.9417 20.6 23.175 20.95C24.325 21.2833 25.1958 21.8125 25.7875 22.5375C26.3792 23.2625 26.675 24.1 26.675 25.05C26.675 26.2333 26.325 27.1333 25.625 27.75C24.925 28.3667 24.0583 28.75 23.025 28.9V31H21.025Z" fill="#A6A6A6"/>
</g>
</svg>
