<svg width="44" height="44" viewBox="0 0 44 44" fill="none" xmlns="http://www.w3.org/2000/svg">
<mask id="mask0_1432_22653" style="mask-type:alpha" maskUnits="userSpaceOnUse" x="10" y="10" width="24" height="24">
<rect x="10" y="10" width="24" height="24" fill="#D9D9D9"/>
</mask>
<g mask="url(#mask0_1432_22653)">
<path d="M20 22C18.9 22 17.9583 21.6083 17.175 20.825C16.3917 20.0417 16 19.1 16 18C16 16.9 16.3917 15.9583 17.175 15.175C17.9583 14.3917 18.9 14 20 14C21.1 14 22.0417 14.3917 22.825 15.175C23.6083 15.9583 24 16.9 24 18C24 19.1 23.6083 20.0417 22.825 20.825C22.0417 21.6083 21.1 22 20 22ZM12 30V27.2C12 26.65 12.1417 26.1333 12.425 25.65C12.7083 25.1667 13.1 24.8 13.6 24.55C14.45 24.1167 15.4083 23.75 16.475 23.45C17.5417 23.15 18.7167 23 20 23H20.35C20.45 23 20.55 23.0167 20.65 23.05C20.5167 23.35 20.4042 23.6625 20.3125 23.9875C20.2208 24.3125 20.15 24.65 20.1 25H20C18.8167 25 17.7542 25.15 16.8125 25.45C15.8708 25.75 15.1 26.05 14.5 26.35C14.35 26.4333 14.2292 26.55 14.1375 26.7C14.0458 26.85 14 27.0167 14 27.2V28H20.3C20.4 28.35 20.5333 28.6958 20.7 29.0375C20.8667 29.3792 21.05 29.7 21.25 30H12ZM26 31L25.7 29.5C25.5 29.4167 25.3125 29.3292 25.1375 29.2375C24.9625 29.1458 24.7833 29.0333 24.6 28.9L23.15 29.35L22.15 27.65L23.3 26.65C23.2667 26.4167 23.25 26.2 23.25 26C23.25 25.8 23.2667 25.5833 23.3 25.35L22.15 24.35L23.15 22.65L24.6 23.1C24.7833 22.9667 24.9625 22.8542 25.1375 22.7625C25.3125 22.6708 25.5 22.5833 25.7 22.5L26 21H28L28.3 22.5C28.5 22.5833 28.6875 22.675 28.8625 22.775C29.0375 22.875 29.2167 23 29.4 23.15L30.85 22.65L31.85 24.4L30.7 25.4C30.7333 25.6 30.75 25.8083 30.75 26.025C30.75 26.2417 30.7333 26.45 30.7 26.65L31.85 27.65L30.85 29.35L29.4 28.9C29.2167 29.0333 29.0375 29.1458 28.8625 29.2375C28.6875 29.3292 28.5 29.4167 28.3 29.5L28 31H26ZM27 28C27.55 28 28.0208 27.8042 28.4125 27.4125C28.8042 27.0208 29 26.55 29 26C29 25.45 28.8042 24.9792 28.4125 24.5875C28.0208 24.1958 27.55 24 27 24C26.45 24 25.9792 24.1958 25.5875 24.5875C25.1958 24.9792 25 25.45 25 26C25 26.55 25.1958 27.0208 25.5875 27.4125C25.9792 27.8042 26.45 28 27 28ZM20 20C20.55 20 21.0208 19.8042 21.4125 19.4125C21.8042 19.0208 22 18.55 22 18C22 17.45 21.8042 16.9792 21.4125 16.5875C21.0208 16.1958 20.55 16 20 16C19.45 16 18.9792 16.1958 18.5875 16.5875C18.1958 16.9792 18 17.45 18 18C18 18.55 18.1958 19.0208 18.5875 19.4125C18.9792 19.8042 19.45 20 20 20Z" fill="#A6A6A6"/>
</g>
</svg>
