<svg width="44" height="44" viewBox="0 0 44 44" fill="none" xmlns="http://www.w3.org/2000/svg">
<path d="M32 21.5667C32 26.8499 27.5222 31.1334 22 31.1334C21.3507 31.1343 20.7032 31.0742 20.0654 30.9545C19.6063 30.8682 19.3768 30.8251 19.2165 30.8496C19.0563 30.8741 18.8292 30.9948 18.375 31.2364C17.0901 31.9197 15.592 32.161 14.1511 31.893C14.6987 31.2194 15.0727 30.4112 15.2378 29.5448C15.3378 29.0148 15.09 28.5 14.7189 28.1231C13.0333 26.4115 12 24.1051 12 21.5667C12 16.2836 16.4778 12 22 12C27.5222 12 32 16.2836 32 21.5667Z" stroke="#A6A6A6" stroke-width="1.8" stroke-linejoin="round"/>
<path d="M21.9955 22H22.0045M25.991 22H26M18 22H18.009" stroke="#A6A6A6" stroke-width="2" stroke-linecap="round" stroke-linejoin="round"/>
</svg>
