<svg width="44" height="44" viewBox="0 0 44 44" fill="none" xmlns="http://www.w3.org/2000/svg">
<mask id="mask0_1432_20866" style="mask-type:alpha" maskUnits="userSpaceOnUse" x="10" y="10" width="24" height="24">
<rect x="10" y="10" width="24" height="24" fill="#D9D9D9"/>
</mask>
<g mask="url(#mask0_1432_20866)">
<path d="M15 27V20H17V27H15ZM21 27V20H23V27H21ZM12 18V16L22 11L32 16V18H12ZM16.475 16H27.525L22 13.25L16.475 16ZM12 31V29H24.05C24.0833 29.35 24.125 29.6875 24.175 30.0125C24.225 30.3375 24.3 30.6667 24.4 31H12ZM27 23.25V20H29V22.25L27 23.25ZM30 34C28.85 33.7167 27.8958 33.0542 27.1375 32.0125C26.3792 30.9708 26 29.8167 26 28.55V26L30 24L34 26V28.55C34 29.8167 33.6208 30.9708 32.8625 32.0125C32.1042 33.0542 31.15 33.7167 30 34ZM29.275 31L32.75 27.55L31.7 26.5L29.275 28.875L28.3 27.9L27.25 28.975L29.275 31Z" fill="#A6A6A6"/>
</g>
</svg>
