<svg width="44" height="44" viewBox="0 0 44 44" fill="none" xmlns="http://www.w3.org/2000/svg">
<g clip-path="url(#clip0_1432_20838)">
<path d="M13.6667 27.0003C13.6667 25.7166 13.6667 25.0748 13.9556 24.6033C14.1173 24.3394 14.3391 24.1176 14.603 23.9559C15.0745 23.667 15.7163 23.667 17 23.667C18.2837 23.667 18.9256 23.667 19.3971 23.9559C19.6609 24.1176 19.8827 24.3394 20.0444 24.6033C20.3334 25.0748 20.3334 25.7166 20.3334 27.0003C20.3334 28.284 20.3334 28.9259 20.0444 29.3974C19.8827 29.6612 19.6609 29.883 19.3971 30.0447C18.9256 30.3337 18.2837 30.3337 17 30.3337C15.7163 30.3337 15.0745 30.3337 14.603 30.0447C14.3391 29.883 14.1173 29.6612 13.9556 29.3974C13.6667 28.9259 13.6667 28.284 13.6667 27.0003Z" stroke="white" stroke-width="1.8"/>
<path d="M23.6667 27.0003C23.6667 25.7166 23.6667 25.0748 23.9556 24.6033C24.1173 24.3394 24.3391 24.1176 24.603 23.9559C25.0745 23.667 25.7163 23.667 27 23.667C28.2837 23.667 28.9256 23.667 29.3971 23.9559C29.6609 24.1176 29.8827 24.3394 30.0444 24.6033C30.3334 25.0748 30.3334 25.7166 30.3334 27.0003C30.3334 28.284 30.3334 28.9259 30.0444 29.3974C29.8827 29.6612 29.6609 29.883 29.3971 30.0447C28.9256 30.3337 28.2837 30.3337 27 30.3337C25.7163 30.3337 25.0745 30.3337 24.603 30.0447C24.3391 29.883 24.1173 29.6612 23.9556 29.3974C23.6667 28.9259 23.6667 28.284 23.6667 27.0003Z" stroke="white" stroke-width="1.8"/>
<path d="M13.6667 17.0003C13.6667 15.7166 13.6667 15.0748 13.9556 14.6033C14.1173 14.3394 14.3391 14.1176 14.603 13.9559C15.0745 13.667 15.7163 13.667 17 13.667C18.2837 13.667 18.9256 13.667 19.3971 13.9559C19.6609 14.1176 19.8827 14.3394 20.0444 14.6033C20.3334 15.0748 20.3334 15.7166 20.3334 17.0003C20.3334 18.284 20.3334 18.9259 20.0444 19.3974C19.8827 19.6612 19.6609 19.883 19.3971 20.0447C18.9256 20.3337 18.2837 20.3337 17 20.3337C15.7163 20.3337 15.0745 20.3337 14.603 20.0447C14.3391 19.883 14.1173 19.6612 13.9556 19.3974C13.6667 18.9259 13.6667 18.284 13.6667 17.0003Z" stroke="white" stroke-width="1.8"/>
<path d="M23.6667 17.0003C23.6667 15.7166 23.6667 15.0748 23.9556 14.6033C24.1173 14.3394 24.3391 14.1176 24.603 13.9559C25.0745 13.667 25.7163 13.667 27 13.667C28.2837 13.667 28.9256 13.667 29.3971 13.9559C29.6609 14.1176 29.8827 14.3394 30.0444 14.6033C30.3334 15.0748 30.3334 15.7166 30.3334 17.0003C30.3334 18.284 30.3334 18.9259 30.0444 19.3974C29.8827 19.6612 29.6609 19.883 29.3971 20.0447C28.9256 20.3337 28.2837 20.3337 27 20.3337C25.7163 20.3337 25.0745 20.3337 24.603 20.0447C24.3391 19.883 24.1173 19.6612 23.9556 19.3974C23.6667 18.9259 23.6667 18.284 23.6667 17.0003Z" stroke="white" stroke-width="1.8"/>
</g>
<defs>
<clipPath id="clip0_1432_20838">
<rect width="20" height="20" fill="white" transform="translate(12 12)"/>
</clipPath>
</defs>
</svg>
