<svg width="44" height="44" viewBox="0 0 44 44" fill="none" xmlns="http://www.w3.org/2000/svg">
<path d="M21.5781 10.75V14.9219H22C22.6984 14.9219 23.0781 15.4703 23.1156 16.0281C23.1344 16.3094 23.0594 16.5672 22.8953 16.75C22.7313 16.9375 22.4688 17.0781 22 17.0781C21.7656 17.0781 21.4797 16.9469 21.2687 16.7313C21.0531 16.5203 20.9219 16.2344 20.9219 16H20.0781C20.0781 16.5156 20.3219 16.9797 20.6688 17.3312C21.0203 17.6781 21.4844 17.9219 22 17.9219C22.6562 17.9219 23.1906 17.6875 23.5234 17.3125C23.8609 16.9328 23.9922 16.4406 23.9594 15.9719C23.9031 15.1516 23.3313 14.3228 22.4219 14.1241V10.75H21.5781ZM19.3328 17.3359L12.8753 21.5781H14.4081L19.7922 18.0391L19.3328 17.3359ZM24.6672 17.3359L24.2078 18.0391L29.5938 21.5781H31.1219L24.6672 17.3359ZM11.9219 22.4219V32.8281H32.0781V22.4219H11.9219ZM13.7031 23.5H14.5469V31.75H13.7031V23.5ZM15.9531 23.5H16.7969V31.75H15.9531V23.5ZM18.2031 23.5H19.0469V31.75H18.2031V23.5ZM20.4531 23.5H21.2969V31.75H20.4531V23.5ZM22.7031 23.5H23.5469V31.75H22.7031V23.5ZM24.9531 23.5H25.7969V31.75H24.9531V23.5ZM27.2031 23.5H28.0469V31.75H27.2031V23.5ZM29.4531 23.5H30.2969V31.75H29.4531V23.5Z" fill="#A6A6A6"/>
</svg>
