<svg width="44" height="44" viewBox="0 0 44 44" fill="none" xmlns="http://www.w3.org/2000/svg">
<path d="M25 27.625C24.9264 29.4769 23.3831 31.0494 21.3156 30.9988C20.8346 30.987 20.2401 30.8194 19.0511 30.484C16.1896 29.6768 13.7056 28.3203 13.1096 25.2815C13 24.723 13 24.0944 13 22.8373L13 21.1627C13 19.9056 13 19.277 13.1096 18.7185C13.7056 15.6797 16.1896 14.3232 19.0511 13.516C20.2401 13.1806 20.8346 13.013 21.3156 13.0012C23.3831 12.9506 24.9264 14.5231 25 16.375" stroke="#F56262" stroke-width="1.8" stroke-linecap="round"/>
<path d="M31 22H20M31 22C31 21.2998 29.0057 19.9915 28.5 19.5M31 22C31 22.7002 29.0057 24.0085 28.5 24.5" stroke="#F56262" stroke-width="1.8" stroke-linecap="round" stroke-linejoin="round"/>
</svg>
