<svg width="22" height="22" viewBox="0 0 22 22" fill="none" xmlns="http://www.w3.org/2000/svg">
<path d="M1.83331 11C1.83331 7.56275 1.83331 5.84412 2.70865 4.63932C2.99135 4.25022 3.33353 3.90804 3.72263 3.62534C4.92743 2.75 6.64606 2.75 10.0833 2.75H11.9166C15.3539 2.75 17.0725 2.75 18.2773 3.62534C18.6664 3.90804 19.0086 4.25022 19.2913 4.63932C20.1666 5.84412 20.1666 7.56275 20.1666 11C20.1666 14.4373 20.1666 16.1559 19.2913 17.3607C19.0086 17.7498 18.6664 18.092 18.2773 18.3747C17.0725 19.25 15.3539 19.25 11.9166 19.25H10.0833C6.64606 19.25 4.92743 19.25 3.72263 18.3747C3.33353 18.092 2.99135 17.7498 2.70865 17.3607C1.83331 16.1559 1.83331 14.4373 1.83331 11Z" stroke="#008CA8" stroke-width="1.8" stroke-linejoin="round"/>
<path d="M8.70831 3.20801L8.70831 18.7913" stroke="#008CA8" stroke-width="1.8" stroke-linejoin="round"/>
<path d="M4.58331 6.41699C4.58331 6.41699 5.42134 6.41699 5.95831 6.41699" stroke="#008CA8" stroke-width="1.8" stroke-linecap="round" stroke-linejoin="round"/>
<path d="M4.58331 10.083H5.95831" stroke="#008CA8" stroke-width="1.8" stroke-linecap="round" stroke-linejoin="round"/>
<path d="M15.5833 9.16699L14.459 10.1361C13.9863 10.5435 13.75 10.7472 13.75 11.0003C13.75 11.2535 13.9863 11.4572 14.459 11.8646L15.5833 12.8337" stroke="#008CA8" stroke-width="1.8" stroke-linecap="round" stroke-linejoin="round"/>
</svg>
